<?xml version="1.0" encoding="UTF-8"?>
<svg id="Livello_1" xmlns="http://www.w3.org/2000/svg" version="1.1" viewBox="0 0 616.7 293.7">
  <!-- Generator: Adobe Illustrator 30.2.1, SVG Export Plug-In . SVG Version: 2.1.1 Build 1)  -->
  <defs>
    <style>
      .st0 {
        fill: #fff;
      }
    </style>
  </defs>
  <path class="st0" d="M47.1,203.7c13.8,0,26.7-4.8,38.7-14.4,12-9.6,21.7-22,29.3-37,7.6-15,12-30.4,13.3-45.9l42.5,97.3h26.4l-5.6-12.6c12.9,8.4,29.5,12.6,49.8,12.6s26-2.6,36.3-7.9c10.4-5.2,18.8-14.1,25.1-26.6h1.1v34.5h24.3v-91.6l90.4,91.6h39.2c13.8,0,26.7-4.8,38.7-14.4,12-9.6,21.7-22,29.3-37,7.6-15,12-30.4,13.3-45.9l42.5,97.3h26.4L519.2,4h-26.1l19.6,42.4c-6.5,8-13.8,16.5-21.9,25.4-8,8.9-15.7,17.4-23,25.4-13.8,15-24.2,26.5-31.1,34.5-5.8,6.5-10.1,12.9-13,18.9-2.9,6.1-4.4,12.2-4.4,18.4s.1.9.1,1.3l-56.8-55.8h26.8c19.6,0,34.7-4.8,45.2-14.3,10.6-9.5,15.8-23.2,15.8-41.1s-5.3-31.3-16-40.8c-10.6-9.5-25.7-14.3-45.1-14.3h-85.3v114.4c-.1,19.6-5.9,35-17.2,46.1-11.5,11.2-26.6,16.8-45.3,16.8s-32.1-4.9-41.9-14.7-14.7-24.6-14.7-44.5V4h-23.9v118.3L108.3,4h-26.1l19.6,42.4c-6.6,8-13.8,16.5-21.9,25.4-8,8.9-15.7,17.4-23,25.4-13.8,15-24.2,26.5-31.1,34.5-5.8,6.5-10.2,12.9-13,18.9-2.9,6.1-4.3,12.2-4.3,18.4,0,10.5,3.5,18.9,10.5,25.2,7,6.4,16.4,9.5,28.2,9.5h0ZM447,157.6c2.6-4,7-9.7,13.2-17,4.5-5.4,9.1-10.8,13.9-16.1,4.8-5.3,9.5-10.7,14.2-16.1,15.5-17.6,27-30.9,34.5-39.8,0,17-2.8,34.3-8.6,51.9s-13.6,32.1-23.6,43.6c-10,11.5-20.9,17.2-32.7,17.2s-7.6-1.2-10.5-3.5c-2.9-2.3-4.3-5.3-4.3-8.8s1.3-7.3,3.9-11.4h0ZM328.3,26.8h60.8c24.7,0,37.1,10.8,37.1,32.2s-12.4,32.5-37.1,32.5h-60.8V26.8ZM36.2,157.6c2.6-4,7-9.7,13.2-17,4.5-5.4,9.1-10.8,13.9-16.1,4.8-5.3,9.5-10.7,14.2-16.1,15.5-17.6,27-30.9,34.5-39.8,0,17-2.9,34.3-8.6,51.9-5.7,17.6-13.6,32.1-23.6,43.6-10,11.5-20.9,17.2-32.7,17.2s-7.6-1.2-10.5-3.5c-2.9-2.3-4.3-5.3-4.3-8.8s1.3-7.3,3.9-11.4Z"/>
  <g>
    <path class="st0" d="M108.8,276.1c-1.5-.7-2.7-1.9-3.7-3.5v4.1h-4.6v-39.7h4.6v15.4c1.1-1.5,2.4-2.7,4-3.5,1.6-.8,3.3-1.2,5.2-1.2s4.9.6,6.8,1.9,3.5,3,4.6,5.2c1.1,2.2,1.7,4.8,1.7,7.6s-.6,5.4-1.7,7.6c-1.1,2.2-2.7,4-4.6,5.2-2,1.3-4.3,1.9-6.8,1.9s-4-.4-5.4-1.1h0ZM120.4,269.9c1.6-2,2.4-4.4,2.4-7.5s-.8-5.5-2.4-7.5-3.6-2.9-6.1-2.9-5.2.9-6.8,2.7c-1.6,1.8-2.4,4.4-2.4,7.7s.8,5.8,2.4,7.7c1.6,1.8,3.9,2.7,6.8,2.7s4.5-1,6.1-2.9Z"/>
    <path class="st0" d="M133.1,273.2c-2.6-2.7-3.9-6.5-3.9-11.3s.6-5.3,1.8-7.5c1.2-2.2,2.8-3.8,4.9-5,2.1-1.2,4.5-1.8,7.1-1.8s4.8.5,6.8,1.5c2,1,3.6,2.4,4.8,4.3,1.2,1.9,1.8,4.3,1.8,7.1v3.1h-22.2c0,2.6.8,4.8,2.5,6.6,1.7,1.8,4,2.6,7,2.6s3.5-.4,4.9-1.1c1.4-.7,2.3-1.8,2.7-3.1h4.9c-.5,2.7-2,4.8-4.3,6.3-2.3,1.5-5.1,2.3-8.2,2.3s-7.9-1.3-10.5-4h0ZM149.2,254c-1.6-1.3-3.7-1.9-6.2-1.9s-3,.3-4.3.9c-1.4.6-2.5,1.5-3.3,2.7s-1.3,2.5-1.3,3.9h17.6c0-2.5-.8-4.3-2.4-5.6h0Z"/>
    <path class="st0" d="M167.2,276.5l-11.4-28.2h5l8.8,22.2,8.8-22.2h5l-17,41.4h-5.2l5.9-13.2h0Z"/>
    <path class="st0" d="M189.6,275.3c-2.2-1.3-3.9-3-5.2-5.3s-1.9-4.8-1.9-7.6.6-5.4,1.9-7.6c1.3-2.2,3-4,5.2-5.3,2.2-1.3,4.6-1.9,7.3-1.9s5.1.6,7.3,1.9,3.9,3,5.2,5.3,1.9,4.8,1.9,7.6-.6,5.4-1.9,7.6c-1.2,2.2-3,4-5.2,5.3s-4.6,1.9-7.3,1.9-5.1-.6-7.3-1.9ZM201.9,271.4c1.5-.9,2.6-2.2,3.5-3.8s1.2-3.3,1.2-5.2-.4-3.6-1.2-5.2c-.8-1.6-2-2.8-3.5-3.8-1.5-.9-3.1-1.4-5-1.4s-3.5.5-5,1.4c-1.5.9-2.6,2.2-3.5,3.8s-1.2,3.3-1.2,5.2.4,3.6,1.2,5.2c.8,1.6,2,2.8,3.5,3.8s3.1,1.4,5,1.4,3.5-.5,5-1.4Z"/>
    <path class="st0" d="M214.6,248.3h4.2l16.8,20.5v-20.5h4.6v28.3h-4.2l-16.8-20.5v20.5h-4.6v-28.3Z"/>
    <path class="st0" d="M249.9,275.3c-2-1.3-3.5-3-4.6-5.2-1.1-2.2-1.7-4.8-1.7-7.6s.6-5.4,1.7-7.6c1.1-2.2,2.7-4,4.6-5.2,2-1.2,4.3-1.9,6.8-1.9s3.6.4,5.2,1.2c1.6.8,2.9,2,4,3.5v-15.4h4.6v39.7h-4.6v-4.1c-1,1.6-2.3,2.8-3.7,3.5s-3.3,1.1-5.4,1.1-4.9-.6-6.8-1.9h0ZM263.5,270.1c1.6-1.8,2.4-4.4,2.4-7.7s-.8-5.8-2.4-7.7c-1.6-1.8-3.9-2.7-6.8-2.7s-4.5,1-6.1,2.9c-1.6,1.9-2.4,4.4-2.4,7.5s.8,5.5,2.4,7.5c1.6,2,3.6,2.9,6.1,2.9s5.2-.9,6.8-2.7Z"/>
    <path class="st0" d="M288.8,268.3v-15.6h-4.8v-4.4h4.8v-7.9h4.6v7.9h7.7v4.4h-7.7v15.5c0,1.8.2,3,.5,3.7.4.7,1,1,2,1s2,0,2.8-.3c.8-.2,1.6-.5,2.4-1v4.3c-.7.5-1.4.9-2.1,1.1-.7.2-1.8.3-3.1.3-4.8,0-7.1-3-7.1-9h0Z"/>
    <path class="st0" d="M303.6,237h4.6v16.3h.2c.9-1.8,2.3-3.3,4.1-4.2,1.9-1,3.9-1.5,6-1.5s4.5.5,6.4,1.5,3.4,2.6,4.5,4.7c1.1,2.1,1.7,4.7,1.7,7.7,0,4.5-1.5,9.5-4.5,15.1h-5.8c1.4-2,2.7-4.4,3.9-7.1,1.1-2.7,1.7-5.4,1.7-8.1s-.8-5.9-2.4-7.4c-1.6-1.4-3.4-2.2-5.4-2.2s-3.5.5-5.1,1.5-2.9,2.3-3.8,3.8c-.9,1.6-1.4,3.2-1.4,4.7v14.6h-4.6v-39.7h0Z"/>
    <path class="st0" d="M336.8,273.2c-2.6-2.7-3.9-6.5-3.9-11.3s.6-5.3,1.8-7.5c1.2-2.2,2.8-3.8,4.9-5,2.1-1.2,4.5-1.8,7.1-1.8s4.8.5,6.8,1.5c2,1,3.6,2.4,4.8,4.3,1.2,1.9,1.8,4.3,1.8,7.1v3.1h-22.2c0,2.6.8,4.8,2.5,6.6,1.7,1.8,4,2.6,7,2.6s3.5-.4,4.9-1.1c1.4-.7,2.3-1.8,2.7-3.1h4.9c-.5,2.7-2,4.8-4.3,6.3-2.3,1.5-5.1,2.3-8.2,2.3s-7.9-1.3-10.5-4h0ZM352.9,254c-1.6-1.3-3.7-1.9-6.2-1.9s-3,.3-4.3.9c-1.4.6-2.5,1.5-3.3,2.7s-1.3,2.5-1.3,3.9h17.6c0-2.5-.8-4.3-2.4-5.6h0Z"/>
    <path class="st0" d="M373.1,267.6h4.6c0,1.6.6,2.9,1.9,3.8s3.2,1.4,5.9,1.4,4-.3,5.3-1,1.9-1.7,1.9-2.9-.2-1.7-.7-2.2c-.5-.5-1.3-.9-2.4-1.2-1.1-.3-2.9-.7-5.2-1-3.9-.6-6.7-1.6-8.4-3.2-1.7-1.5-2.5-3.6-2.5-6.1s1-4.2,3-5.6,4.8-2,8.2-2,6.9.7,9.1,2.2c2.2,1.4,3.3,3.5,3.3,6.1h-4.6c0-1.2-.7-2.2-2.1-2.8s-3.3-1-5.7-1-3.5.3-4.8.8c-1.2.5-1.8,1.3-1.8,2.4s.5,2.3,1.6,3,2.9,1.3,5.5,1.7c3.2.5,5.6,1.1,7.3,1.8s2.9,1.6,3.7,2.7c.7,1.1,1.1,2.5,1.1,4.3,0,2.8-1,4.9-3,6.3s-4.9,2.1-8.8,2.1c-8.2,0-12.4-3.2-12.4-9.6h0Z"/>
    <path class="st0" d="M405.8,275.3c-2.2-1.3-3.9-3-5.2-5.3s-1.9-4.8-1.9-7.6.6-5.4,1.9-7.6c1.3-2.2,3-4,5.2-5.3,2.2-1.3,4.6-1.9,7.3-1.9s5.1.6,7.3,1.9,3.9,3,5.2,5.3,1.9,4.8,1.9,7.6-.6,5.4-1.9,7.6c-1.2,2.2-3,4-5.2,5.3s-4.6,1.9-7.3,1.9-5.1-.6-7.3-1.9ZM418.1,271.4c1.5-.9,2.6-2.2,3.5-3.8s1.2-3.3,1.2-5.2-.4-3.6-1.2-5.2c-.8-1.6-2-2.8-3.5-3.8-1.5-.9-3.1-1.4-5-1.4s-3.5.5-5,1.4c-1.5.9-2.6,2.2-3.5,3.8s-1.2,3.3-1.2,5.2.4,3.6,1.2,5.2c.8,1.6,2,2.8,3.5,3.8s3.1,1.4,5,1.4,3.5-.5,5-1.4Z"/>
    <path class="st0" d="M432.4,274.2c-2.1-2-3.2-4.7-3.2-8.1v-17.8h4.7v16.7c0,2.6.7,4.5,2,5.8,1.3,1.3,3.2,2,5.8,2s3.1-.4,4.5-1.1c1.4-.7,2.5-1.8,3.3-3.1.8-1.3,1.2-2.7,1.2-4.3v-16h4.7v28.3h-4.7v-4.5h-.2c-.9,1.8-2.1,3-3.7,3.8-1.6.8-3.3,1.2-5.1,1.2-4.1,0-7.2-1-9.3-2.9h0Z"/>
    <path class="st0" d="M460.2,248.3h4.2l16.8,20.5v-20.5h4.7v28.3h-4.2l-16.8-20.5v20.5h-4.7v-28.3Z"/>
    <path class="st0" d="M495.6,275.3c-2-1.3-3.5-3-4.7-5.2-1.1-2.2-1.7-4.8-1.7-7.6s.6-5.4,1.7-7.6c1.1-2.2,2.7-4,4.7-5.2,2-1.2,4.3-1.9,6.8-1.9s3.6.4,5.2,1.2c1.6.8,2.9,2,4,3.5v-15.4h4.7v39.7h-4.7v-4.1c-1,1.6-2.3,2.8-3.7,3.5s-3.3,1.1-5.4,1.1-4.8-.6-6.8-1.9h0ZM509.1,270.1c1.6-1.8,2.4-4.4,2.4-7.7s-.8-5.8-2.4-7.7c-1.6-1.8-3.9-2.7-6.8-2.7s-4.5,1-6.1,2.9c-1.6,1.9-2.3,4.4-2.3,7.5s.8,5.5,2.3,7.5c1.6,2,3.6,2.9,6.1,2.9s5.2-.9,6.8-2.7Z"/>
  </g>
</svg>