<?xml version="1.0" encoding="UTF-8"?>
<svg id="Livello_1" data-name="Livello 1" xmlns="http://www.w3.org/2000/svg" viewBox="0 0 783.29 837.39">
  <defs>
    <style>
      .cls-1 {
        fill: #fff;
      }
    </style>
  </defs>
  <path class="cls-1" d="M130.47,475.69c13.84,0,26.74-4.81,38.71-14.44,11.97-9.63,21.74-21.97,29.32-37.03,7.58-15.05,12.02-30.35,13.33-45.87l42.51,97.34h26.37l-5.62-12.6c12.9,8.36,29.47,12.6,49.82,12.6,13.84,0,25.95-2.62,36.33-7.86,10.38-5.23,18.75-14.12,25.11-26.65h1.09v34.51h24.26v-91.59l90.45,91.59h34.63s0-.01,0-.01c1.43.01,2.93.01,4.56.01,13.84,0,26.74-4.81,38.71-14.44,11.97-9.63,21.74-21.97,29.32-37.03,7.58-15.05,12.02-30.35,13.33-45.87l42.51,97.34h26.37l-89.07-199.73h-26.09l19.64,42.35c-6.55,8.05-13.84,16.51-21.88,25.39-8.04,8.89-15.71,17.35-23,25.39-13.84,14.97-24.22,26.46-31.14,34.5-5.8,6.55-10.15,12.86-13.04,18.93-2.9,6.08-4.35,12.21-4.35,18.37,0,.46.1.86.12,1.32l-56.8-55.84h26.82c19.59,0,34.67-4.75,45.22-14.27,10.56-9.51,15.84-23.21,15.84-41.08s-5.33-31.29-15.98-40.81c-10.65-9.51-25.68-14.26-45.08-14.26h-85.31v114.35c-.14,19.65-5.87,35.03-17.23,46.11-11.5,11.22-26.6,16.83-45.3,16.83s-32.12-4.91-41.94-14.73c-9.82-9.82-14.73-24.64-14.73-44.46v-118.1h-23.85v118.1c0,.07,0,.14,0,.21l-52.76-118.31h-26.09l19.64,42.35c-6.55,8.05-13.84,16.51-21.88,25.39-8.04,8.89-15.71,17.35-23,25.39-13.84,14.97-24.22,26.46-31.14,34.5-5.8,6.55-10.15,12.86-13.04,18.93-2.9,6.08-4.35,12.21-4.35,18.37,0,10.48,3.51,18.9,10.52,25.25,7.01,6.36,16.41,9.54,28.19,9.54ZM530.37,429.55c2.62-4.02,7.01-9.68,13.19-16.97,4.49-5.42,9.12-10.8,13.89-16.13,4.77-5.33,9.49-10.7,14.17-16.12,15.52-17.58,27.02-30.86,34.5-39.84,0,17.02-2.85,34.32-8.56,51.9-5.71,17.58-13.56,32.12-23.56,43.62-10.01,11.5-20.9,17.25-32.68,17.25-4.12,0-7.62-1.17-10.52-3.51-2.9-2.33-4.35-5.28-4.35-8.84s1.31-7.33,3.93-11.36ZM411.67,298.79h60.77c24.72,0,37.1,10.75,37.1,32.25s-12.37,32.52-37.1,32.52h-60.77v-64.77ZM119.52,429.55c2.62-4.02,7.01-9.68,13.18-16.97,4.49-5.42,9.12-10.8,13.89-16.13,4.77-5.33,9.49-10.7,14.17-16.12,15.52-17.58,27.02-30.86,34.5-39.84,0,17.02-2.85,34.32-8.56,51.9-5.71,17.58-13.56,32.12-23.56,43.62-10.01,11.5-20.9,17.25-32.68,17.25-4.12,0-7.62-1.17-10.52-3.51-2.9-2.33-4.35-5.28-4.35-8.84s1.31-7.33,3.93-11.36Z"/>
  <g>
    <path class="cls-1" d="M192.12,548.03c-1.47-.74-2.72-1.9-3.74-3.49v4.08h-4.65v-39.67h4.65v15.36c1.06-1.51,2.38-2.66,3.97-3.46,1.59-.79,3.32-1.19,5.21-1.19,2.57,0,4.85.62,6.83,1.87,1.98,1.25,3.53,3,4.65,5.24,1.11,2.25,1.67,4.79,1.67,7.62s-.56,5.37-1.67,7.59c-1.12,2.23-2.66,3.98-4.65,5.24-1.98,1.27-4.26,1.9-6.83,1.9-2.15,0-3.97-.37-5.44-1.1ZM203.71,541.85c1.57-1.95,2.35-4.43,2.35-7.45s-.78-5.55-2.35-7.48c-1.57-1.93-3.6-2.89-6.09-2.89-2.91,0-5.18.91-6.8,2.72-1.62,1.81-2.44,4.36-2.44,7.65s.81,5.84,2.44,7.65c1.62,1.81,3.89,2.72,6.8,2.72,2.49,0,4.52-.97,6.09-2.92Z"/>
    <path class="cls-1" d="M216.4,545.14c-2.59-2.7-3.88-6.47-3.88-11.31,0-2.83.59-5.33,1.76-7.48,1.17-2.15,2.8-3.82,4.87-4.99,2.08-1.17,4.46-1.76,7.14-1.76,2.53,0,4.8.48,6.8,1.45,2,.96,3.59,2.41,4.76,4.34,1.17,1.93,1.76,4.29,1.76,7.08v3.06h-22.22c0,2.64.83,4.85,2.49,6.6,1.66,1.76,3.99,2.64,6.97,2.64,1.85,0,3.49-.36,4.93-1.08,1.44-.72,2.32-1.76,2.66-3.12h4.93c-.53,2.72-1.96,4.84-4.28,6.35-2.32,1.51-5.07,2.27-8.25,2.27-4.38,0-7.87-1.35-10.46-4.05ZM232.5,525.95c-1.61-1.28-3.68-1.93-6.21-1.93-1.51,0-2.96.31-4.34.94-1.38.62-2.49,1.51-3.34,2.66s-1.28,2.46-1.28,3.94h17.57c0-2.46-.8-4.33-2.41-5.61Z"/>
    <path class="cls-1" d="M250.5,548.51l-11.45-28.22h5.04l8.78,22.22,8.84-22.22h5.04l-17,41.37h-5.16l5.89-13.15Z"/>
    <path class="cls-1" d="M272.94,547.29c-2.19-1.27-3.91-3.02-5.16-5.27-1.25-2.25-1.87-4.79-1.87-7.62s.63-5.38,1.9-7.62c1.27-2.25,2.98-4,5.16-5.27,2.17-1.27,4.6-1.9,7.28-1.9s5.11.63,7.28,1.9c2.17,1.27,3.89,3.02,5.16,5.27,1.27,2.25,1.9,4.79,1.9,7.62s-.62,5.38-1.87,7.62c-1.25,2.25-2.97,4-5.16,5.27-2.19,1.27-4.63,1.9-7.31,1.9s-5.12-.63-7.31-1.9ZM285.24,543.38c1.47-.93,2.63-2.18,3.46-3.77.83-1.59,1.25-3.32,1.25-5.21s-.42-3.63-1.25-5.21c-.83-1.59-1.98-2.84-3.46-3.77-1.47-.92-3.14-1.39-4.99-1.39s-3.51.46-4.99,1.39c-1.47.93-2.63,2.18-3.46,3.77-.83,1.59-1.25,3.33-1.25,5.21s.42,3.63,1.25,5.21c.83,1.59,1.98,2.84,3.46,3.77s3.14,1.39,4.99,1.39,3.51-.46,4.99-1.39Z"/>
    <path class="cls-1" d="M297.93,520.28h4.25l16.78,20.52v-20.52h4.65v28.34h-4.25l-16.78-20.46v20.46h-4.65v-28.34Z"/>
    <path class="cls-1" d="M333.27,547.23c-1.98-1.27-3.53-3.01-4.65-5.24-1.11-2.23-1.67-4.76-1.67-7.59s.56-5.38,1.67-7.62c1.11-2.25,2.66-4,4.65-5.24,1.98-1.25,4.26-1.87,6.83-1.87,1.89,0,3.63.4,5.21,1.19,1.59.79,2.91,1.95,3.97,3.46v-15.36h4.65v39.67h-4.65v-4.08c-1.02,1.59-2.27,2.75-3.74,3.49-1.47.74-3.29,1.1-5.44,1.1-2.57,0-4.85-.63-6.83-1.9ZM346.84,542.05c1.62-1.81,2.44-4.36,2.44-7.65s-.81-5.84-2.44-7.65c-1.62-1.81-3.89-2.72-6.8-2.72-2.49,0-4.53.96-6.09,2.89-1.57,1.93-2.35,4.42-2.35,7.48s.78,5.51,2.35,7.45c1.57,1.95,3.6,2.92,6.09,2.92,2.91,0,5.18-.91,6.8-2.72Z"/>
    <path class="cls-1" d="M372.12,540.29v-15.59h-4.82v-4.42h4.82v-7.93h4.65v7.93h7.71v4.42h-7.71v15.47c0,1.78.18,3,.54,3.68.36.68,1.01,1.02,1.96,1.02,1.1,0,2.04-.1,2.83-.31.79-.21,1.59-.54,2.38-.99v4.31c-.68.53-1.39.9-2.12,1.1-.74.21-1.77.31-3.09.31-4.76,0-7.14-3-7.14-9.01Z"/>
    <path class="cls-1" d="M386.97,508.95h4.65v16.32h.17c.91-1.85,2.29-3.26,4.14-4.22,1.85-.96,3.85-1.45,6.01-1.45,2.34,0,4.46.51,6.35,1.53,1.89,1.02,3.39,2.57,4.51,4.65,1.11,2.08,1.67,4.65,1.67,7.71,0,4.46-1.49,9.5-4.48,15.13h-5.78c1.44-2.04,2.73-4.39,3.88-7.06,1.15-2.66,1.73-5.36,1.73-8.08,0-3.48-.81-5.93-2.44-7.37-1.62-1.44-3.44-2.15-5.44-2.15-1.81,0-3.51.5-5.1,1.5-1.59,1-2.85,2.29-3.8,3.85-.94,1.57-1.42,3.15-1.42,4.73v14.57h-4.65v-39.67Z"/>
    <path class="cls-1" d="M420.15,545.14c-2.59-2.7-3.88-6.47-3.88-11.31,0-2.83.59-5.33,1.76-7.48,1.17-2.15,2.8-3.82,4.87-4.99,2.08-1.17,4.46-1.76,7.14-1.76,2.53,0,4.8.48,6.8,1.45,2,.96,3.59,2.41,4.76,4.34,1.17,1.93,1.76,4.29,1.76,7.08v3.06h-22.22c0,2.64.83,4.85,2.49,6.6,1.66,1.76,3.99,2.64,6.97,2.64,1.85,0,3.49-.36,4.93-1.08,1.44-.72,2.32-1.76,2.66-3.12h4.93c-.53,2.72-1.96,4.84-4.28,6.35-2.32,1.51-5.07,2.27-8.25,2.27-4.38,0-7.87-1.35-10.46-4.05ZM436.25,525.95c-1.61-1.28-3.68-1.93-6.21-1.93-1.51,0-2.96.31-4.34.94-1.38.62-2.49,1.51-3.34,2.66s-1.28,2.46-1.28,3.94h17.57c0-2.46-.8-4.33-2.41-5.61Z"/>
    <path class="cls-1" d="M456.45,539.61h4.59c0,1.62.63,2.89,1.9,3.8,1.27.91,3.22,1.36,5.87,1.36,2.27,0,4.02-.35,5.27-1.05,1.25-.7,1.87-1.65,1.87-2.86,0-.94-.24-1.66-.71-2.15-.47-.49-1.28-.9-2.41-1.22-1.13-.32-2.85-.65-5.16-.99-3.93-.57-6.74-1.62-8.42-3.17-1.68-1.55-2.52-3.57-2.52-6.06s1.01-4.25,3.03-5.61c2.02-1.36,4.75-2.04,8.19-2.04,3.89,0,6.93.72,9.12,2.15,2.19,1.44,3.29,3.48,3.29,6.12h-4.59c0-1.21-.7-2.15-2.1-2.83-1.4-.68-3.31-1.02-5.72-1.02-1.97,0-3.55.26-4.76.79-1.21.53-1.81,1.34-1.81,2.44,0,1.32.53,2.33,1.59,3.03,1.06.7,2.91,1.28,5.55,1.73,3.17.53,5.61,1.14,7.31,1.84s2.92,1.59,3.66,2.66c.74,1.08,1.1,2.52,1.1,4.34,0,2.8-1.01,4.88-3.03,6.26-2.02,1.38-4.94,2.07-8.76,2.07-8.24,0-12.36-3.19-12.36-9.58Z"/>
    <path class="cls-1" d="M489.15,547.29c-2.19-1.27-3.91-3.02-5.16-5.27-1.25-2.25-1.87-4.79-1.87-7.62s.63-5.38,1.9-7.62c1.27-2.25,2.98-4,5.16-5.27,2.17-1.27,4.6-1.9,7.28-1.9s5.11.63,7.28,1.9c2.17,1.27,3.89,3.02,5.16,5.27,1.27,2.25,1.9,4.79,1.9,7.62s-.62,5.38-1.87,7.62c-1.25,2.25-2.97,4-5.16,5.27-2.19,1.27-4.63,1.9-7.31,1.9s-5.12-.63-7.31-1.9ZM501.45,543.38c1.47-.93,2.63-2.18,3.46-3.77.83-1.59,1.25-3.32,1.25-5.21s-.42-3.63-1.25-5.21c-.83-1.59-1.98-2.84-3.46-3.77-1.47-.92-3.14-1.39-4.99-1.39s-3.51.46-4.99,1.39c-1.47.93-2.63,2.18-3.46,3.77-.83,1.59-1.25,3.33-1.25,5.21s.42,3.63,1.25,5.21c.83,1.59,1.98,2.84,3.46,3.77s3.14,1.39,4.99,1.39,3.51-.46,4.99-1.39Z"/>
    <path class="cls-1" d="M515.76,546.21c-2.1-1.95-3.15-4.66-3.15-8.13v-17.8h4.65v16.66c0,2.57.66,4.5,1.98,5.81,1.32,1.3,3.25,1.96,5.78,1.96,1.59,0,3.07-.37,4.45-1.1,1.38-.74,2.48-1.76,3.32-3.06.83-1.3,1.25-2.73,1.25-4.28v-15.98h4.65v28.34h-4.65v-4.48h-.17c-.87,1.78-2.11,3.05-3.71,3.83-1.61.77-3.32,1.16-5.13,1.16-4.08,0-7.17-.97-9.27-2.92Z"/>
    <path class="cls-1" d="M543.56,520.28h4.25l16.78,20.52v-20.52h4.65v28.34h-4.25l-16.78-20.46v20.46h-4.65v-28.34Z"/>
    <path class="cls-1" d="M578.9,547.23c-1.98-1.27-3.53-3.01-4.65-5.24-1.11-2.23-1.67-4.76-1.67-7.59s.56-5.38,1.67-7.62c1.11-2.25,2.66-4,4.65-5.24,1.98-1.25,4.26-1.87,6.83-1.87,1.89,0,3.63.4,5.21,1.19,1.59.79,2.91,1.95,3.97,3.46v-15.36h4.65v39.67h-4.65v-4.08c-1.02,1.59-2.27,2.75-3.74,3.49-1.47.74-3.29,1.1-5.44,1.1-2.57,0-4.85-.63-6.83-1.9ZM592.47,542.05c1.62-1.81,2.44-4.36,2.44-7.65s-.81-5.84-2.44-7.65c-1.62-1.81-3.89-2.72-6.8-2.72-2.49,0-4.53.96-6.09,2.89-1.57,1.93-2.35,4.42-2.35,7.48s.78,5.51,2.35,7.45c1.57,1.95,3.6,2.92,6.09,2.92,2.91,0,5.18-.91,6.8-2.72Z"/>
  </g>
</svg>