<?xml version="1.0" encoding="UTF-8"?>
<svg id="Livello_1" data-name="Livello 1" xmlns="http://www.w3.org/2000/svg" viewBox="0 0 600 340.49">
  <defs>
    <style>
      .cls-1 {
        fill: #fff;
      }
    </style>
  </defs>
  <path class="cls-1" d="M47.99,225.1c13.31,0,25.76-4.63,37.34-13.89,11.58-9.26,20.94-21.23,28.27-35.7,7.33-14.47,11.58-29.33,12.83-44.29l41.01,93.88h25.47l-5.4-12.16c12.45,8.1,28.46,12.16,48.05,12.16s25.09-2.51,35.02-7.62c10.03-5.02,18.14-13.6,24.22-25.66h1.06v33.29h23.45v-88.38l87.22,88.38h37.82c13.31,0,25.76-4.63,37.34-13.89,11.58-9.26,20.94-21.23,28.27-35.7,7.33-14.47,11.58-29.33,12.83-44.29l41.01,93.88h25.47l-85.77-192.68h-25.18l18.91,40.91c-6.27,7.72-13.31,15.92-21.13,24.51-7.72,8.59-15.15,16.79-22.19,24.51-13.31,14.47-23.35,25.57-30.01,33.29-5.6,6.27-9.74,12.45-12.54,18.24-2.8,5.89-4.25,11.77-4.25,17.75s.1.87.1,1.25l-54.8-53.84h25.86c18.91,0,33.48-4.63,43.61-13.8,10.23-9.17,15.24-22.38,15.24-39.65s-5.11-30.2-15.44-39.37c-10.23-9.17-24.8-13.8-43.51-13.8h-82.3v110.38c-.1,18.91-5.69,33.77-16.6,44.48-11.1,10.81-25.66,16.21-43.71,16.21s-30.97-4.73-40.43-14.18c-9.46-9.46-14.18-23.73-14.18-42.94V32.42h-23.06v114.14l-50.85-114.14h-25.18l18.91,40.91c-6.37,7.72-13.31,15.92-21.13,24.51-7.72,8.59-15.15,16.79-22.19,24.51-13.31,14.47-23.35,25.57-30.01,33.29-5.6,6.27-9.84,12.45-12.54,18.24-2.8,5.89-4.15,11.77-4.15,17.75,0,10.13,3.38,18.24,10.13,24.31,6.75,6.17,15.82,9.17,27.21,9.17h-.1ZM433.82,180.62c2.51-3.86,6.75-9.36,12.74-16.4,4.34-5.21,8.78-10.42,13.41-15.53,4.63-5.11,9.17-10.32,13.7-15.53,14.95-16.98,26.05-29.81,33.29-38.4,0,16.4-2.7,33.09-8.3,50.07-5.6,16.98-13.12,30.97-22.77,42.07s-20.17,16.6-31.55,16.6-7.33-1.16-10.13-3.38-4.15-5.11-4.15-8.49,1.25-7.04,3.76-11h0ZM319.3,54.42h58.66c23.83,0,35.8,10.42,35.8,31.07s-11.96,31.36-35.8,31.36h-58.66v-62.42ZM37.47,180.62c2.51-3.86,6.75-9.36,12.74-16.4,4.34-5.21,8.78-10.42,13.41-15.53,4.63-5.11,9.17-10.32,13.7-15.53,14.95-16.98,26.05-29.81,33.29-38.4,0,16.4-2.8,33.09-8.3,50.07-5.5,16.98-13.12,30.97-22.77,42.07-9.65,11.1-20.17,16.6-31.55,16.6s-7.33-1.16-10.13-3.38-4.15-5.11-4.15-8.49,1.25-7.04,3.76-11Z"/>
  <g>
    <path class="cls-1" d="M107.52,294.95c-1.45-.68-2.61-1.83-3.57-3.38v3.96h-4.44v-38.3h4.44v14.86c1.06-1.45,2.32-2.61,3.86-3.38s3.18-1.16,5.02-1.16,4.73.58,6.56,1.83,3.38,2.89,4.44,5.02,1.64,4.63,1.64,7.33-.58,5.21-1.64,7.33-2.61,3.86-4.44,5.02c-1.93,1.25-4.15,1.83-6.56,1.83s-3.86-.39-5.21-1.06h0l-.1.1ZM118.71,288.97c1.54-1.93,2.32-4.25,2.32-7.24s-.77-5.31-2.32-7.24-3.47-2.8-5.89-2.8-5.02.87-6.56,2.61c-1.54,1.74-2.32,4.25-2.32,7.43s.77,5.6,2.32,7.43c1.54,1.74,3.76,2.61,6.56,2.61s4.34-.96,5.89-2.8h0Z"/>
    <path class="cls-1" d="M130.96,292.15c-2.51-2.61-3.76-6.27-3.76-10.9s.58-5.11,1.74-7.24c1.16-2.12,2.7-3.67,4.73-4.82,2.03-1.16,4.34-1.74,6.85-1.74s4.63.48,6.56,1.45,3.47,2.32,4.63,4.15c1.16,1.83,1.74,4.15,1.74,6.85v2.99h-21.42c0,2.51.77,4.63,2.41,6.37,1.64,1.74,3.86,2.51,6.75,2.51s3.38-.39,4.73-1.06,2.22-1.74,2.61-2.99h4.73c-.48,2.61-1.93,4.63-4.15,6.08s-4.92,2.22-7.91,2.22-7.62-1.25-10.13-3.86h-.1ZM146.49,273.63c-1.54-1.25-3.57-1.83-5.98-1.83s-2.89.29-4.15.87c-1.35.58-2.41,1.45-3.18,2.61s-1.25,2.41-1.25,3.76h16.98c0-2.41-.77-4.15-2.32-5.4h-.1Z"/>
    <path class="cls-1" d="M163.86,295.34l-11-27.21h4.82l8.49,21.42,8.49-21.42h4.82l-16.4,39.94h-5.02l5.69-12.74h.1Z"/>
    <path class="cls-1" d="M185.47,294.18c-2.12-1.25-3.76-2.89-5.02-5.11s-1.83-4.63-1.83-7.33.58-5.21,1.83-7.33c1.25-2.12,2.89-3.86,5.02-5.11s4.44-1.83,7.04-1.83,4.92.58,7.04,1.83,3.76,2.89,5.02,5.11c1.25,2.22,1.83,4.63,1.83,7.33s-.58,5.21-1.83,7.33c-1.16,2.12-2.89,3.86-5.02,5.11s-4.44,1.83-7.04,1.83-4.92-.58-7.04-1.83ZM197.34,290.42c1.45-.87,2.51-2.12,3.38-3.67s1.16-3.18,1.16-5.02-.39-3.47-1.16-5.02-1.93-2.7-3.38-3.67c-1.45-.87-2.99-1.35-4.82-1.35s-3.38.48-4.82,1.35-2.51,2.12-3.38,3.67-1.16,3.18-1.16,5.02.39,3.47,1.16,5.02,1.93,2.7,3.38,3.67,2.99,1.35,4.82,1.35,3.38-.48,4.82-1.35Z"/>
    <path class="cls-1" d="M209.6,268.13h4.05l16.21,19.78v-19.78h4.44v27.3h-4.05l-16.21-19.78v19.78h-4.44v-27.3h0Z"/>
    <path class="cls-1" d="M243.65,294.18c-1.93-1.25-3.38-2.89-4.44-5.02s-1.64-4.63-1.64-7.33.58-5.21,1.64-7.33c1.06-2.12,2.61-3.86,4.44-5.02,1.93-1.16,4.15-1.83,6.56-1.83s3.47.39,5.02,1.16,2.8,1.93,3.86,3.38v-14.86h4.44v38.3h-4.44v-3.96c-.96,1.54-2.22,2.7-3.57,3.38s-3.18,1.06-5.21,1.06-4.73-.58-6.56-1.83h0l-.1-.1ZM256.78,289.16c1.54-1.74,2.32-4.25,2.32-7.43s-.77-5.6-2.32-7.43c-1.54-1.74-3.76-2.61-6.56-2.61s-4.34.96-5.89,2.8-2.32,4.25-2.32,7.24.77,5.31,2.32,7.24c1.54,1.93,3.47,2.8,5.89,2.8s5.02-.87,6.56-2.61h0Z"/>
    <path class="cls-1" d="M281.19,287.42v-15.05h-4.63v-4.25h4.63v-7.62h4.44v7.62h7.43v4.25h-7.43v14.95c0,1.74.19,2.89.48,3.57.39.68.96.96,1.93.96s1.93,0,2.7-.29c.77-.19,1.54-.48,2.32-.96v4.15c-.68.48-1.35.87-2.03,1.06s-1.74.29-2.99.29c-4.63,0-6.85-2.89-6.85-8.68h0Z"/>
    <path class="cls-1" d="M295.47,257.23h4.44v15.73h.19c.87-1.74,2.22-3.18,3.96-4.05,1.83-.96,3.76-1.45,5.79-1.45s4.34.48,6.17,1.45,3.28,2.51,4.34,4.53c1.06,2.03,1.64,4.53,1.64,7.43,0,4.34-1.45,9.17-4.34,14.57h-5.6c1.35-1.93,2.61-4.25,3.76-6.85,1.06-2.61,1.64-5.21,1.64-7.82s-.77-5.69-2.32-7.14c-1.54-1.35-3.28-2.12-5.21-2.12s-3.38.48-4.92,1.45-2.8,2.22-3.67,3.67c-.87,1.54-1.35,3.09-1.35,4.53v14.09h-4.44v-38.3h0l-.1.29Z"/>
    <path class="cls-1" d="M327.5,292.15c-2.51-2.61-3.76-6.27-3.76-10.9s.58-5.11,1.74-7.24c1.16-2.12,2.7-3.67,4.73-4.82s4.34-1.74,6.85-1.74,4.63.48,6.56,1.45,3.47,2.32,4.63,4.15c1.16,1.83,1.74,4.15,1.74,6.85v2.99h-21.42c0,2.51.77,4.63,2.41,6.37,1.64,1.74,3.86,2.51,6.75,2.51s3.38-.39,4.73-1.06,2.22-1.74,2.61-2.99h4.73c-.48,2.61-1.93,4.63-4.15,6.08s-4.92,2.22-7.91,2.22-7.62-1.25-10.13-3.86h-.1ZM343.03,273.63c-1.54-1.25-3.57-1.83-5.98-1.83s-2.89.29-4.15.87c-1.35.58-2.41,1.45-3.18,2.61s-1.25,2.41-1.25,3.76h16.98c0-2.41-.77-4.15-2.32-5.4h-.1Z"/>
    <path class="cls-1" d="M362.52,286.75h4.44c0,1.54.58,2.8,1.83,3.67s3.09,1.35,5.69,1.35,3.86-.29,5.11-.96,1.83-1.64,1.83-2.8-.19-1.64-.68-2.12-1.25-.87-2.32-1.16c-1.06-.29-2.8-.68-5.02-.96-3.76-.58-6.46-1.54-8.1-3.09-1.64-1.45-2.41-3.47-2.41-5.89s.96-4.05,2.89-5.4,4.63-1.93,7.91-1.93,6.66.68,8.78,2.12c2.12,1.35,3.18,3.38,3.18,5.89h-4.44c0-1.16-.68-2.12-2.03-2.7s-3.18-.96-5.5-.96-3.38.29-4.63.77c-1.16.48-1.74,1.25-1.74,2.32s.48,2.22,1.54,2.89,2.8,1.25,5.31,1.64c3.09.48,5.4,1.06,7.04,1.74s2.8,1.54,3.57,2.61c.68,1.06,1.06,2.41,1.06,4.15,0,2.7-.96,4.73-2.89,6.08s-4.73,2.03-8.49,2.03c-7.91,0-11.96-3.09-11.96-9.26h0Z"/>
    <path class="cls-1" d="M394.07,294.18c-2.12-1.25-3.76-2.89-5.02-5.11s-1.83-4.63-1.83-7.33.58-5.21,1.83-7.33c1.25-2.12,2.89-3.86,5.02-5.11s4.44-1.83,7.04-1.83,4.92.58,7.04,1.83,3.76,2.89,5.02,5.11c1.25,2.22,1.83,4.63,1.83,7.33s-.58,5.21-1.83,7.33c-1.16,2.12-2.89,3.86-5.02,5.11s-4.44,1.83-7.04,1.83-4.92-.58-7.04-1.83ZM405.94,290.42c1.45-.87,2.51-2.12,3.38-3.67s1.16-3.18,1.16-5.02-.39-3.47-1.16-5.02c-.77-1.54-1.93-2.7-3.38-3.67-1.45-.87-2.99-1.35-4.82-1.35s-3.38.48-4.82,1.35-2.51,2.12-3.38,3.67-1.16,3.18-1.16,5.02.39,3.47,1.16,5.02c.77,1.54,1.93,2.7,3.38,3.67s2.99,1.35,4.82,1.35,3.38-.48,4.82-1.35Z"/>
    <path class="cls-1" d="M419.74,293.12c-2.03-1.93-3.09-4.53-3.09-7.82v-17.17h4.53v16.11c0,2.51.68,4.34,1.93,5.6s3.09,1.93,5.6,1.93,2.99-.39,4.34-1.06,2.41-1.74,3.18-2.99c.77-1.25,1.16-2.61,1.16-4.15v-15.44h4.53v27.3h-4.53v-4.34h-.19c-.87,1.74-2.03,2.89-3.57,3.67s-3.18,1.16-4.92,1.16c-3.96,0-6.95-.96-8.97-2.8h0Z"/>
    <path class="cls-1" d="M446.56,268.13h4.05l16.21,19.78v-19.78h4.53v27.3h-4.05l-16.21-19.78v19.78h-4.53v-27.3h0Z"/>
    <path class="cls-1" d="M480.71,294.18c-1.93-1.25-3.38-2.89-4.53-5.02-1.06-2.12-1.64-4.63-1.64-7.33s.58-5.21,1.64-7.33c1.06-2.12,2.61-3.86,4.53-5.02s4.15-1.83,6.56-1.83,3.47.39,5.02,1.16,2.8,1.93,3.86,3.38v-14.86h4.53v38.3h-4.53v-3.96c-.96,1.54-2.22,2.7-3.57,3.38s-3.18,1.06-5.21,1.06-4.63-.58-6.56-1.83h0l-.1-.1ZM493.74,289.16c1.54-1.74,2.32-4.25,2.32-7.43s-.77-5.6-2.32-7.43c-1.54-1.74-3.76-2.61-6.56-2.61s-4.34.96-5.89,2.8-2.22,4.25-2.22,7.24.77,5.31,2.22,7.24c1.54,1.93,3.47,2.8,5.89,2.8s5.02-.87,6.56-2.61h0Z"/>
  </g>
</svg>