<?xml version="1.0" encoding="UTF-8"?>
<svg id="Livello_1" xmlns="http://www.w3.org/2000/svg" version="1.1" viewBox="0 0 1080 1080">
  <!-- Generator: Adobe Illustrator 30.4.0, SVG Export Plug-In . SVG Version: 2.1.4 Build 226)  -->
  <defs>
    <style>
      .st0 {
        fill-rule: evenodd;
      }

      .st0, .st1 {
        fill: #fff;
      }
    </style>
  </defs>
  <polygon class="st1" points="514.68 154.62 272.35 300.35 272.01 584.78 324.84 552.41 324.84 325.68 367.27 299.85 367.6 526.58 419.25 495.22 419.25 268.49 461.85 242.66 461.85 469.57 514.68 437.53 514.68 154.62"/>
  <path class="st0" d="M543.69,472.08l-243.67,147.75,243.67,146.4h0l243.67-146.4-243.67-147.75ZM543.69,711.22h0ZM543.69,701.33h0l-143.39-86.2,143.22-86.87h0l143.22,86.87-143.05,86.2Z"/>
  <polygon class="st1" points="573.04 154.62 573.2 210.97 760.03 324.5 760.03 382.19 573.2 268.99 573.04 437.7 815.87 584.94 815.87 526.42 628.88 412.55 629.22 357.04 815.87 469.9 815.87 300.35 573.04 154.62"/>
  <path class="st1" d="M198.39,835.66v15.6c-12.75-.5-26.66,6.04-26.66,26.16v45.45h-14.93v-85.7h14.93v14.42c5.53-12.07,15.93-15.93,26.66-15.93"/>
  <path class="st1" d="M297.67,837.17v85.7h-14.93v-14.76c-6.88,10.4-17.78,16.94-32.37,16.94-23.81,0-43.43-19.79-43.43-45.11s19.62-45.11,43.43-45.11c14.59,0,25.49,6.54,32.37,16.94v-14.59h14.93ZM282.75,880.1c0-17.44-13.25-30.69-30.52-30.69s-30.35,13.25-30.35,30.69,13.25,30.69,30.35,30.69,30.52-13.25,30.52-30.69"/>
  <path class="st1" d="M409.7,802.96v119.91h-14.93v-14.76c-6.88,10.4-17.78,16.94-32.37,16.94-23.81,0-43.43-19.79-43.43-45.11s19.62-45.11,43.43-45.11c14.59,0,25.49,6.54,32.37,16.94v-48.97h14.93v.17ZM394.77,880.1c0-17.44-13.25-30.69-30.52-30.69s-30.35,13.25-30.35,30.69,13.25,30.69,30.35,30.69,30.52-13.25,30.52-30.69"/>
  <path class="st1" d="M433.17,811.68c0-5.53,4.53-10.06,10.06-10.06s9.89,4.7,9.89,10.06-4.53,9.89-9.89,9.89c-5.7,0-10.06-4.36-10.06-9.89M435.69,837.17h14.93v85.7h-14.93v-85.7Z"/>
  <path class="st1" d="M472.08,880.1c0-25.32,20.12-45.11,45.11-45.11s45.28,19.79,45.28,45.11-20.29,45.11-45.28,45.11-45.11-19.79-45.11-45.11M547.55,880.1c0-17.27-13.25-30.52-30.35-30.52s-30.19,13.25-30.19,30.52,13.25,30.52,30.19,30.52c17.11,0,30.35-13.25,30.35-30.52"/>
  <path class="st1" d="M716.59,868.36v54.5h-29.85v-51.15c0-7.71-3.52-12.41-11.07-12.41-8.39,0-12.24,6.04-12.24,14.93v48.63h-29.52v-51.15c0-7.71-3.69-12.41-11.24-12.41-8.22,0-12.24,6.04-12.24,14.93v48.63h-29.52v-89.05h29.52v8.39c4.86-6.37,12.75-10.9,24.15-10.9,10.57,0,17.94,4.02,22.81,11.4,5.53-6.71,13.58-11.4,25.83-11.4,20.29,0,33.37,13.92,33.37,37.06"/>
  <path class="st1" d="M731.35,899.72l41.42-43.6c6.88-7.55,11.91-13.25,11.91-19.29s-3.86-10.4-11.07-10.4c-7.88,0-13.42,5.2-16.77,13.08l-27.5-15.43c8.39-19.62,25.66-28.68,43.94-28.68,22.47,0,43.27,14.09,43.27,39.58,0,15.76-8.55,27.5-19.96,39.41l-16.94,17.61h39.07v30.86h-87.37v-23.14Z"/>
  <path class="st1" d="M827.94,878.25c0-26.5,21.3-47.12,47.63-47.12s47.63,20.46,47.63,47.12-20.96,47.12-47.63,47.12-47.63-20.46-47.63-47.12M893.52,878.25c0-11.07-7.71-18.61-17.94-18.61s-17.78,7.55-17.78,18.61,7.71,18.61,17.78,18.61,17.94-7.55,17.94-18.61"/>
</svg>