<?xml version="1.0" encoding="UTF-8"?>
<svg id="Livello_1" data-name="Livello 1" xmlns="http://www.w3.org/2000/svg" viewBox="0 0 1080 286">
  <defs>
    <style>
      .cls-1 {
        fill: #fff;
      }
    </style>
  </defs>
  <path class="cls-1" d="M0,235.65l47.27-56.34c28.74,22.31,61.26,31.01,92.65,31.01,16.26,0,22.69-4.16,22.69-11.34v-.76c0-7.56-8.32-11.72-36.68-17.39-59.37-12.1-111.55-29.12-111.55-85.08v-.76C14.37,44.68,54.08,5.73,126.68,5.73c51.43,0,88.86,12.1,119.49,36.3l-43.11,59.75c-25.34-18.15-54.83-26.09-79.41-26.09-13.24,0-19.29,4.54-19.29,10.97v.76c0,7.18,6.81,12.1,35.17,17.02,67.69,12.1,113.07,32.52,113.07,85.46v.76c0,55.59-45.76,89.62-116.85,89.62-54.08,0-102.1-14.75-135.76-44.62Z"/>
  <path class="cls-1" d="M266.97,143.76v-.76c0-76.76,63.15-138.02,144.83-138.02s144.08,60.13,144.08,137.27v.76c0,76.77-63.15,138.03-144.83,138.03s-144.08-60.13-144.08-137.27ZM466.64,143.76v-.76c0-31.39-21.56-59.75-55.59-59.75s-54.83,27.98-54.83,58.99v.76c0,31.39,21.55,59.75,55.59,59.75s54.83-27.98,54.83-58.99Z"/>
  <path class="cls-1" d="M580.08,10.65h88.49v189.08h124.41v75.63h-212.9V10.65Z"/>
  <path class="cls-1" d="M791.09,143.76v-.76c0-76.76,63.15-138.02,144.83-138.02s144.08,60.13,144.08,137.27v.76c0,76.77-63.15,138.03-144.83,138.03s-144.08-60.13-144.08-137.27ZM990.76,143.76v-.76c0-31.39-21.55-59.75-55.59-59.75s-54.83,27.98-54.83,58.99v.76c0,31.39,21.55,59.75,55.59,59.75s54.83-27.98,54.83-58.99Z"/>
</svg>