<?xml version="1.0" encoding="UTF-8"?>
<svg id="Livello_1" data-name="Livello 1" xmlns="http://www.w3.org/2000/svg" viewBox="0 0 600 340.49">
  <defs>
    <style>
      .cls-1 {
        fill: #fff;
      }
    </style>
  </defs>
  <path class="cls-1" d="M6.06,220.67l25.73-30.67c15.64,12.14,33.35,16.88,50.43,16.88,8.85,0,12.35-2.26,12.35-6.17v-.41c0-4.12-4.53-6.38-19.97-9.47-32.32-6.59-60.72-15.85-60.72-46.31v-.41c0-27.39,21.61-48.59,61.13-48.59,27.99,0,48.37,6.59,65.04,19.76l-23.47,32.52c-13.79-9.88-29.85-14.2-43.23-14.2-7.21,0-10.5,2.47-10.5,5.97v.41c0,3.91,3.71,6.59,19.14,9.26,36.85,6.59,61.55,17.7,61.55,46.52v.41c0,30.26-24.91,48.78-63.61,48.78-29.44,0-55.58-8.03-73.9-24.29h0Z"/>
  <path class="cls-1" d="M151.38,170.65v-.41c0-41.78,34.37-75.13,78.84-75.13s78.43,32.73,78.43,74.72v.41c0,41.79-34.37,75.13-78.84,75.13s-78.43-32.73-78.43-74.72h0ZM260.07,170.65v-.41c0-17.09-11.74-32.52-30.26-32.52s-29.85,15.23-29.85,32.11v.41c0,17.09,11.73,32.52,30.26,32.52s29.85-15.23,29.85-32.11Z"/>
  <path class="cls-1" d="M321.82,98.2h48.17v102.92h67.72v41.17h-115.89V98.2h0Z"/>
  <path class="cls-1" d="M436.68,170.65v-.41c0-41.78,34.37-75.13,78.84-75.13s78.43,32.73,78.43,74.72v.41c0,41.79-34.37,75.13-78.84,75.13s-78.43-32.73-78.43-74.72h0ZM545.37,170.65v-.41c0-17.09-11.73-32.52-30.26-32.52s-29.85,15.23-29.85,32.11v.41c0,17.09,11.73,32.52,30.26,32.52s29.85-15.23,29.85-32.11Z"/>
</svg>