<svg xmlns="http://www.w3.org/2000/svg" width="155.606" height="25.42" viewBox="0 0 155.606 25.42"><defs><style>.a{fill:#221f1c;}.b{fill:#ea0029;}</style></defs><rect class="a" width="4.496" height="14.573" rx="1.395" transform="translate(46.205 8.654)"/><path class="a" d="M-106.054-78.258h0a1.819,1.819,0,0,1,1.61-.763,1.8,1.8,0,0,1,1.385.547,2.108,2.108,0,0,1,.5,1.188.844.844,0,0,0,.841.74h2.374a1.049,1.049,0,0,0,1.023-1.17,5.638,5.638,0,0,0-1.637-3.491,6.2,6.2,0,0,0-4.417-1.584,6.322,6.322,0,0,0-4.946,2.026,7.761,7.761,0,0,0-1.8,5.343v.242a7.84,7.84,0,0,0,1.8,5.457,6.383,6.383,0,0,0,4.952,2.014,6.854,6.854,0,0,0,3.06-.681,5.466,5.466,0,0,0,2.219-1.948A5.608,5.608,0,0,0-98.37-72.3a.979.979,0,0,0-.964-1.153l-2.646,0a.65.65,0,0,0-.638.543,1.638,1.638,0,0,1-.424.97,2,2,0,0,1-1.388.457,1.847,1.847,0,0,1-1.64-.759,5.171,5.171,0,0,1-.573-2.827v-.383A5.084,5.084,0,0,1-106.054-78.258Z" transform="translate(163.462 91.203)"/><path class="a" d="M-77.849-79.955a.8.8,0,0,1,.06-.97l3.805-4.374a.8.8,0,0,0-.6-1.323l-3.363,0a.8.8,0,0,0-.61.28l-2,2.337a.8.8,0,0,1-1.409-.52l.007-7.068a.8.8,0,0,0-.8-.8l-2.882,0a.8.8,0,0,0-.8.8l-.018,18.717a.8.8,0,0,0,.8.8l2.883,0a.8.8,0,0,0,.8-.8l0-1.506V-75.84a.787.787,0,0,1,1.448-.427l1.106,1.7,1.442,2.119a.8.8,0,0,0,.674.368l3.261,0a.8.8,0,0,0,.666-1.245Z" transform="translate(152.933 95.328)"/><path class="a" d="M-31.277-73.937l-.685.033a1,1,0,0,1-1.044-1l0-1.824,0-3.765a.8.8,0,0,1,.8-.8h.752a.8.8,0,0,0,.8-.8l0-1.9a.8.8,0,0,0-.8-.8H-32.2a.8.8,0,0,1-.8-.8l0-1.782a.8.8,0,0,0-.8-.8l-2.883,0a.8.8,0,0,0-.8.8l0,1.783a.8.8,0,0,1-.8.8h-.408a.8.8,0,0,0-.8.8l0,1.9a.8.8,0,0,0,.8.8h.409a.8.8,0,0,1,.8.8l-.006,6.22c.052,2.814,1.554,4.3,4.343,4.306a11.529,11.529,0,0,0,2-.266.811.811,0,0,0,.634-.786l0-2.189A.728.728,0,0,0-31.277-73.937Z" transform="translate(132.885 93.499)"/><rect class="a" width="4.496" height="4.497" rx="1.395" transform="translate(46.216 2.911)"/><path class="a" d="M-136.709-92.45-151-92.464a.8.8,0,0,0-.8.8l0,2.892a.8.8,0,0,0,.8.8l4.1,0a.8.8,0,0,1,.8.8l-.014,14.227a.8.8,0,0,0,.8.8l2.895,0a.8.8,0,0,0,.8-.8l.014-14.228a.8.8,0,0,1,.8-.8l4.1,0a.8.8,0,0,0,.8-.8l0-2.892A.8.8,0,0,0-136.709-92.45Z" transform="translate(180.829 95.356)"/><path class="a" d="M-56.673-82.746a6.8,6.8,0,0,0-3.562.939,6.3,6.3,0,0,0-2.427,2.685,8.754,8.754,0,0,0-.846,3.886v.356a7.015,7.015,0,0,0,2.019,5.239,7.172,7.172,0,0,0,5.21,1.978,7.215,7.215,0,0,0,3.3-.69,8.38,8.38,0,0,0,2.189-1.757.675.675,0,0,0,0-.9l-1.447-1.623a.664.664,0,0,0-.965-.022,3.977,3.977,0,0,1-2.834,1.225,3.267,3.267,0,0,1-2.049-.666,3.586,3.586,0,0,1-1.1-1.506l8.172.008a.8.8,0,0,0,.8-.8v-1.1a7.654,7.654,0,0,0-1.721-5.324A6.126,6.126,0,0,0-56.673-82.746Zm-2.263,5.777A2.228,2.228,0,0,1-56.6-79.074a2.228,2.228,0,0,1,2.331,2.11Z" transform="translate(143.134 91.183)"/><path class="a" d="M-179.7-91.118l-.006-.03a.508.508,0,0,0-.274-.348,1.336,1.336,0,0,1-.78-1.213,1.337,1.337,0,0,1,.055-.36v-.005l.006-.016a1.341,1.341,0,0,1,.092-.231l.018-.037.02-.032c.019-.032.038-.065.06-.1v0c.012-.017.025-.032.038-.048s.036-.048.055-.069a.527.527,0,0,0,.127-.273.393.393,0,0,0,.005-.044.439.439,0,0,0,0-.055.473.473,0,0,0-.008-.062c0-.024-.007-.038-.007-.038l-.5-2.492a1.166,1.166,0,0,0-1.138-.935,1.223,1.223,0,0,0-.235.023l-3.812.769-5.273,1.063-7.478,1.508-2.748.554a1.165,1.165,0,0,0-.935,1.138,1.177,1.177,0,0,0,.023.235l.322,1.594,1.016,5.041v0l.263,1.306a1.161,1.161,0,0,0,.1.282,1.166,1.166,0,0,0,1.068.652,1.216,1.216,0,0,0,.2-.021l1.384-.278,1.376-.278,5.773-1.164,2.482-.5.927-.187,3.164-.638,3.12-.629.41-.083.687-.138a1.166,1.166,0,0,0,.911-1.373Z" transform="translate(202.434 97.503)"/><path class="b" d="M-181.584-76.141h-3.233a18.822,18.822,0,0,0-3.723.372l-11.071,2.232a1.6,1.6,0,0,1-.3.029,1.565,1.565,0,0,1-1.4-.871,1.571,1.571,0,0,1-.129-.376l-.238-1.182a.1.1,0,0,0-.151-.07,1.164,1.164,0,0,0-.626,1.032v8.1a1.165,1.165,0,0,0,1.166,1.165h16.515a2.206,2.206,0,0,1,1.559.646l1.974,1.974a.479.479,0,0,0,.817-.339V-74.975A1.165,1.165,0,0,0-181.584-76.141Z" transform="translate(202.449 88.368)"/><path class="a" d="M-11.22-82.469a9.907,9.907,0,0,1-2.57-1.093,1.4,1.4,0,0,1-.731-1.178,1.469,1.469,0,0,1,.618-1.237h0a3.153,3.153,0,0,1,1.93-.508,3.058,3.058,0,0,1,1.984.605,1.719,1.719,0,0,1,.507.72,1.058,1.058,0,0,0,.977.7h2.6a1.033,1.033,0,0,0,1.012-1.279,5.85,5.85,0,0,0-.73-1.661A5.988,5.988,0,0,0-8.2-89.579a8.76,8.76,0,0,0-3.706-.756,9.591,9.591,0,0,0-3.711.693,5.958,5.958,0,0,0-2.6,1.975,4.9,4.9,0,0,0-.921,2.914c0,2.076,1.132,3.741,3.367,4.948a20,20,0,0,0,3.209,1.295,9.723,9.723,0,0,1,2.628,1.159,1.563,1.563,0,0,1,.6,1.338,1.4,1.4,0,0,1-.6,1.218,3.188,3.188,0,0,1-1.886.477c-1.912,0-2.946-.625-3.2-1.955a.849.849,0,0,0-.825-.708h-2.87a.926.926,0,0,0-.922,1.054,5.682,5.682,0,0,0,.911,2.328,6.579,6.579,0,0,0,2.847,2.285,9.9,9.9,0,0,0,4.057.818,8.4,8.4,0,0,0,5.141-1.448,4.864,4.864,0,0,0,1.979-4.1,5.25,5.25,0,0,0-1.61-3.9A12.012,12.012,0,0,0-11.22-82.469Z" transform="translate(124.408 94.417)"/><path class="a" d="M56.675-76.339h0a16.4,16.4,0,0,0-2.375-.634,5.62,5.62,0,0,1-1.812-.592.726.726,0,0,1-.394-.647.919.919,0,0,1,.362-.756,1.829,1.829,0,0,1,1.181-.328,1.782,1.782,0,0,1,1.3.4,1.315,1.315,0,0,1,.27.391,1.1,1.1,0,0,0,1.019.628h2.6a.877.877,0,0,0,.878-1.031A4.293,4.293,0,0,0,58.089-81.4a7.023,7.023,0,0,0-4.441-1.32,6.549,6.549,0,0,0-4.229,1.317,4.185,4.185,0,0,0-1.671,3.374c0,2.3,1.761,3.84,5.233,4.569A7.292,7.292,0,0,1,55-72.818a.772.772,0,0,1,.468.713.849.849,0,0,1-.378.725,2.31,2.31,0,0,1-1.357.321,2.5,2.5,0,0,1-1.559-.437,1.379,1.379,0,0,1-.459-.628.943.943,0,0,0-.906-.571l-2.417.012a.954.954,0,0,0-.9,1.238,4.575,4.575,0,0,0,.656,1.322A5.577,5.577,0,0,0,50.419-68.3a7.709,7.709,0,0,0,3.241.654,7.392,7.392,0,0,0,4.408-1.241,3.989,3.989,0,0,0,1.784-3.374C59.853-74.192,58.784-75.564,56.675-76.339Z" transform="translate(95.753 91.173)"/><path class="a" d="M29.315-79.335l-.022-.085c-.016-.062-.033-.123-.053-.183a4.624,4.624,0,0,0-3.753-3.078,4.758,4.758,0,0,0-.658-.04l-.1,0a5.068,5.068,0,0,0-3.516,1.242.786.786,0,0,1-1.059-.021,5.019,5.019,0,0,0-1.474-.931,4.053,4.053,0,0,0-1.1-.258A5.031,5.031,0,0,0,17-82.724a5.36,5.36,0,0,0-3.43,1.12s.044-.86-1.07-.86l-2.5,0a.914.914,0,0,0-.922.8v13.224a.8.8,0,0,0,.8.8h2.9a.8.8,0,0,0,.8-.8V-77.06a1.75,1.75,0,0,1,1.754-1.709,1.76,1.76,0,0,1,1.745,1.591v8.735a.8.8,0,0,0,.8.8h2.895a.8.8,0,0,0,.8-.8v-8.713a1.743,1.743,0,0,1,1.741-1.613,1.77,1.77,0,0,1,1.76,1.756v8.57a.8.8,0,0,0,.8.8h2.895a.8.8,0,0,0,.8-.8v-8.648a10.357,10.357,0,0,0-.1-1.448A4.483,4.483,0,0,0,29.315-79.335Z" transform="translate(112.108 91.173)"/></svg>