<?xml version="1.0" encoding="UTF-8"?>
<svg id="Livello_1" data-name="Livello 1" xmlns="http://www.w3.org/2000/svg" viewBox="0 0 600 340.49">
  <defs>
    <style>
      .cls-1 {
        fill: #fff;
      }
    </style>
  </defs>
  <g>
    <path class="cls-1" d="M12.49,24.66h17.32v45.39c0,6.67,1.45,11.63,4.36,14.9,2.91,3.26,7.08,4.89,12.53,4.89,2.72,0,5.13-.41,7.22-1.22,2.09-.81,3.86-2.04,5.29-3.67,1.43-1.63,2.52-3.69,3.26-6.17.74-2.48,1.11-5.39,1.11-8.73V24.66h17.32v46.6c0,3.51-.37,6.77-1.12,9.8-.75,3.02-1.83,5.77-3.23,8.25-1.41,2.48-3.12,4.67-5.14,6.58-2.02,1.91-4.29,3.52-6.82,4.82-2.53,1.31-5.3,2.3-8.31,2.97-3.01.68-6.2,1.01-9.58,1.01s-6.57-.34-9.58-1.01-5.78-1.67-8.32-2.97c-2.54-1.31-4.81-2.91-6.83-4.82-2.01-1.91-3.72-4.1-5.13-6.58-1.41-2.48-2.49-5.23-3.23-8.25-.75-3.02-1.12-6.29-1.12-9.8V24.66Z"/>
    <path class="cls-1" d="M159.71,103.05h-24.59l-30.59-62.88v62.88h-16.61V24.66h26.2l28.97,59.18V24.66h16.61v78.39Z"/>
    <path class="cls-1" d="M184.59,24.66v63.65h35.63v14.75h-52.96V24.66h17.32Z"/>
    <path class="cls-1" d="M221.46,63.86c0-4.11.42-7.97,1.27-11.58.85-3.61,2.06-6.93,3.63-9.95,1.57-3.02,3.49-5.73,5.76-8.13,2.27-2.39,4.81-4.42,7.62-6.07,2.81-1.65,5.89-2.92,9.22-3.8,3.33-.88,6.87-1.32,10.59-1.32s7.26.44,10.59,1.32c3.33.88,6.41,2.14,9.24,3.8,2.82,1.65,5.36,3.68,7.62,6.07,2.26,2.39,4.18,5.1,5.76,8.13,1.58,3.02,2.8,6.35,3.65,9.96s1.27,7.47,1.27,11.57-.42,7.95-1.27,11.57-2.06,6.94-3.65,9.96c-1.58,3.03-3.5,5.73-5.76,8.13-2.26,2.39-4.8,4.42-7.62,6.07-2.82,1.65-5.9,2.92-9.24,3.8-3.33.88-6.87,1.32-10.59,1.32s-7.26-.44-10.59-1.32c-3.33-.88-6.41-2.14-9.22-3.8-2.81-1.65-5.35-3.68-7.62-6.07-2.27-2.39-4.18-5.1-5.76-8.13-1.57-3.02-2.78-6.34-3.63-9.96s-1.27-7.47-1.27-11.57ZM238.89,63.86c0,4.18.46,7.89,1.38,11.13s2.26,5.95,4.02,8.15c1.75,2.2,3.92,3.87,6.48,5,2.57,1.13,5.5,1.7,8.78,1.7s6.22-.57,8.79-1.7c2.57-1.13,4.73-2.8,6.5-5,1.76-2.2,3.11-4.92,4.03-8.15.92-3.23,1.38-6.94,1.38-11.13s-.46-7.89-1.38-11.13c-.92-3.23-2.27-5.95-4.03-8.15-1.76-2.2-3.93-3.87-6.5-5-2.57-1.13-5.5-1.7-8.79-1.7s-6.22.57-8.78,1.7c-2.57,1.13-4.73,2.8-6.48,5-1.75,2.2-3.09,4.92-4.02,8.15s-1.38,6.94-1.38,11.13Z"/>
    <path class="cls-1" d="M321.04,63.86c0,4.18.46,7.89,1.38,11.13s2.26,5.95,4.02,8.15c1.75,2.2,3.92,3.87,6.48,5,2.57,1.13,5.5,1.7,8.78,1.7,5.28,0,9.51-1.53,12.69-4.58s5.29-7.63,6.33-13.73h17.21c-.49,3.44-1.27,6.64-2.34,9.62-1.07,2.98-2.4,5.7-4,8.15-1.6,2.46-3.44,4.64-5.52,6.55-2.08,1.91-4.39,3.52-6.91,4.82-2.52,1.31-5.25,2.3-8.18,2.99-2.93.68-6.03,1.03-9.31,1.03-3.73,0-7.25-.44-10.58-1.32s-6.4-2.14-9.22-3.8c-2.82-1.65-5.36-3.68-7.62-6.07-2.26-2.39-4.17-5.1-5.74-8.13-1.57-3.02-2.78-6.34-3.63-9.96s-1.27-7.47-1.27-11.57.42-7.97,1.27-11.58c.85-3.61,2.06-6.93,3.63-9.95,1.57-3.02,3.49-5.73,5.74-8.13,2.26-2.39,4.8-4.42,7.62-6.07,2.82-1.65,5.9-2.92,9.22-3.8s6.85-1.32,10.58-1.32c3.27,0,6.37.34,9.31,1.03,2.93.69,5.66,1.68,8.18,2.99,2.52,1.31,4.82,2.91,6.91,4.82,2.08,1.91,3.92,4.09,5.52,6.55,1.6,2.46,2.93,5.18,4,8.15,1.07,2.98,1.85,6.19,2.34,9.62h-17.21c-1.04-6.08-3.16-10.66-6.36-13.72-3.2-3.06-7.42-4.59-12.66-4.59-3.29,0-6.22.57-8.78,1.7-2.57,1.13-4.73,2.8-6.48,5-1.75,2.2-3.09,4.92-4.02,8.15s-1.38,6.94-1.38,11.13Z"/>
    <path class="cls-1" d="M416.61,64.16l38.78,38.89h-22.89l-30.18-30.62v30.62h-17.32V24.66h17.32v33.52l29.19-33.52h21.3l-36.21,39.5Z"/>
    <path class="cls-1" d="M513.43,24.66v14.75h-36.84v17.51h33.66v13.98h-33.66v17.41h37.83v14.75h-55.15V24.66h54.16Z"/>
    <path class="cls-1" d="M520.09,24.66h28.59c3.95,0,7.66.42,11.14,1.25,3.48.83,6.69,2.04,9.63,3.63,2.94,1.59,5.58,3.53,7.91,5.81,2.33,2.28,4.31,4.88,5.93,7.78s2.87,6.09,3.74,9.57c.87,3.47,1.3,7.19,1.3,11.16s-.43,7.68-1.3,11.16c-.87,3.47-2.12,6.66-3.74,9.57-1.63,2.91-3.6,5.5-5.93,7.79-2.33,2.28-4.97,4.22-7.91,5.81-2.94,1.59-6.16,2.8-9.65,3.63-3.49.83-7.2,1.25-11.13,1.25h-28.59V24.66ZM548.29,88.2c3.58,0,6.77-.53,9.58-1.6,2.8-1.07,5.17-2.63,7.1-4.7,1.93-2.06,3.4-4.61,4.41-7.63s1.52-6.49,1.52-10.4-.51-7.38-1.52-10.4-2.49-5.57-4.41-7.63c-1.93-2.06-4.29-3.63-7.1-4.7-2.81-1.07-6-1.6-9.58-1.6h-11.05v48.68h11.05Z"/>
  </g>
  <g>
    <path class="cls-1" d="M219.47,123.83v78.39h-17.32v-63.84l-20.31,63.84h-18.91l-20.09-63.86v63.86h-16.61v-78.39h27.79l19.13,60.71,19.32-60.71h27Z"/>
    <path class="cls-1" d="M226.49,123.83h17.32v45.39c0,6.67,1.45,11.63,4.36,14.9,2.91,3.26,7.08,4.89,12.53,4.89,2.72,0,5.13-.41,7.22-1.22,2.09-.81,3.86-2.04,5.29-3.67,1.43-1.63,2.52-3.69,3.26-6.17.74-2.48,1.11-5.39,1.11-8.73v-45.39h17.32v46.6c0,3.51-.37,6.77-1.12,9.8-.75,3.02-1.83,5.77-3.23,8.25-1.41,2.48-3.12,4.67-5.14,6.58-2.02,1.91-4.29,3.52-6.82,4.82-2.53,1.31-5.3,2.3-8.31,2.97-3.01.68-6.2,1.01-9.58,1.01s-6.57-.34-9.58-1.01-5.78-1.67-8.32-2.97c-2.54-1.31-4.81-2.91-6.83-4.82-2.01-1.91-3.72-4.1-5.13-6.58-1.41-2.48-2.49-5.23-3.23-8.25-.75-3.02-1.12-6.29-1.12-9.8v-46.6Z"/>
    <path class="cls-1" d="M334.95,122.18c5.04,0,9.58.6,13.61,1.81s7.46,2.95,10.28,5.22,4.99,5.04,6.51,8.3c1.52,3.26,2.27,6.94,2.27,11.03h-16.61c0-1.9-.39-3.6-1.17-5.11-.78-1.51-1.88-2.8-3.3-3.86-1.43-1.07-3.13-1.89-5.13-2.45-1.99-.57-4.21-.85-6.66-.85-2.03,0-4,.21-5.91.62-1.91.41-3.6,1.03-5.07,1.85-1.47.82-2.65,1.86-3.54,3.1-.89,1.24-1.33,2.69-1.33,4.33,0,1.55.38,2.82,1.14,3.8s1.88,1.78,3.37,2.4c1.49.62,3.33,1.13,5.54,1.54s4.74.81,7.61,1.23l3.21.47c1.64.24,3.33.5,5.07.78,1.74.28,3.47.63,5.21,1.04s3.44.9,5.11,1.45c1.67.56,3.26,1.24,4.76,2.04,1.5.8,2.88,1.75,4.14,2.84,1.26,1.09,2.35,2.35,3.28,3.8.92,1.44,1.64,3.09,2.15,4.93.51,1.85.77,3.93.77,6.25,0,4.11-.82,7.73-2.45,10.87-1.64,3.13-3.96,5.76-6.96,7.87s-6.64,3.71-10.9,4.78c-4.26,1.08-9.01,1.62-14.25,1.62-5.65,0-10.65-.61-15.02-1.84-4.37-1.22-8.04-3-11.03-5.32-2.99-2.32-5.26-5.16-6.81-8.51-1.55-3.35-2.33-7.16-2.33-11.42h16.61c0,2.03.42,3.85,1.27,5.46s2.07,2.97,3.67,4.08c1.6,1.11,3.54,1.97,5.82,2.56,2.28.59,4.85.89,7.7.89,2.43,0,4.71-.22,6.84-.66,2.13-.44,3.98-1.11,5.56-2s2.83-2.01,3.74-3.34c.91-1.33,1.37-2.9,1.37-4.69s-.38-3.07-1.15-4.12c-.77-1.05-1.89-1.9-3.36-2.54-1.47-.64-3.26-1.15-5.37-1.52-2.11-.38-4.51-.75-7.2-1.14l-4.14-.6c-2.16-.31-4.4-.65-6.72-1.03-2.32-.37-4.6-.88-6.83-1.52-2.23-.64-4.35-1.45-6.36-2.44-2.01-.99-3.77-2.25-5.29-3.78s-2.72-3.38-3.6-5.54c-.89-2.16-1.33-4.72-1.33-7.7,0-2.72.38-5.23,1.15-7.51s1.86-4.35,3.28-6.21c1.42-1.85,3.12-3.48,5.13-4.88,2-1.4,4.23-2.57,6.69-3.52,2.46-.95,5.12-1.66,7.98-2.14,2.86-.47,5.85-.71,8.98-.71Z"/>
    <path class="cls-1" d="M393.17,202.22h-17.32v-78.39h17.32v78.39Z"/>
    <path class="cls-1" d="M417.37,163.02c0,4.18.46,7.89,1.38,11.13s2.26,5.95,4.02,8.15c1.75,2.2,3.92,3.87,6.48,5,2.57,1.13,5.5,1.7,8.78,1.7,5.28,0,9.51-1.53,12.69-4.58s5.29-7.63,6.33-13.73h17.21c-.49,3.44-1.27,6.64-2.34,9.62-1.07,2.98-2.4,5.7-4,8.15-1.6,2.46-3.44,4.64-5.52,6.55-2.08,1.91-4.39,3.52-6.91,4.82-2.52,1.31-5.25,2.3-8.18,2.99-2.93.68-6.03,1.03-9.31,1.03-3.73,0-7.25-.44-10.58-1.32s-6.4-2.14-9.22-3.8c-2.82-1.65-5.36-3.68-7.62-6.07-2.26-2.39-4.17-5.1-5.74-8.13-1.57-3.02-2.78-6.34-3.63-9.96s-1.27-7.47-1.27-11.57.42-7.97,1.27-11.58c.85-3.61,2.06-6.93,3.63-9.95,1.57-3.02,3.49-5.73,5.74-8.13,2.26-2.39,4.8-4.42,7.62-6.07,2.82-1.65,5.9-2.92,9.22-3.8s6.85-1.32,10.58-1.32c3.27,0,6.37.34,9.31,1.03,2.93.69,5.66,1.68,8.18,2.99,2.52,1.31,4.82,2.91,6.91,4.82,2.08,1.91,3.92,4.09,5.52,6.55,1.6,2.46,2.93,5.18,4,8.15,1.07,2.98,1.85,6.19,2.34,9.62h-17.21c-1.04-6.08-3.16-10.66-6.36-13.72-3.2-3.06-7.42-4.59-12.66-4.59-3.29,0-6.22.57-8.78,1.7-2.57,1.13-4.73,2.8-6.48,5-1.75,2.2-3.09,4.92-4.02,8.15s-1.38,6.94-1.38,11.13Z"/>
  </g>
  <g>
    <path class="cls-1" d="M113.49,241.19h-36.84v18.61h33.66v14.31h-33.66v30.73h-17.32v-78.39h54.16v14.75Z"/>
    <path class="cls-1" d="M173.33,226.45v14.75h-36.84v17.51h33.66v13.98h-33.66v17.41h37.83v14.75h-55.15v-78.39h54.16Z"/>
    <path class="cls-1" d="M212.47,224.8c5.04,0,9.58.6,13.61,1.81s7.46,2.95,10.28,5.22,4.99,5.04,6.51,8.3c1.52,3.26,2.27,6.94,2.27,11.03h-16.61c0-1.9-.39-3.6-1.17-5.11-.78-1.51-1.88-2.8-3.3-3.86-1.43-1.07-3.13-1.89-5.13-2.45-1.99-.57-4.21-.85-6.66-.85-2.03,0-4,.21-5.91.62-1.91.41-3.6,1.03-5.07,1.85-1.47.82-2.65,1.86-3.54,3.1-.89,1.24-1.33,2.69-1.33,4.33,0,1.55.38,2.82,1.14,3.8s1.88,1.78,3.37,2.4c1.49.62,3.33,1.13,5.54,1.54s4.74.81,7.61,1.23l3.21.47c1.64.24,3.33.5,5.07.78,1.74.28,3.47.63,5.21,1.04s3.44.9,5.11,1.45c1.67.56,3.26,1.24,4.76,2.04,1.5.8,2.88,1.75,4.14,2.84,1.26,1.09,2.35,2.35,3.28,3.8.92,1.44,1.64,3.09,2.15,4.93.51,1.85.77,3.93.77,6.25,0,4.11-.82,7.73-2.45,10.87-1.64,3.13-3.96,5.76-6.96,7.87s-6.64,3.71-10.9,4.78c-4.26,1.08-9.01,1.62-14.25,1.62-5.65,0-10.65-.61-15.02-1.84-4.37-1.22-8.04-3-11.03-5.32-2.99-2.32-5.26-5.16-6.81-8.51-1.55-3.35-2.33-7.16-2.33-11.42h16.61c0,2.03.42,3.85,1.27,5.46s2.07,2.97,3.67,4.08c1.6,1.11,3.54,1.97,5.82,2.56,2.28.59,4.85.89,7.7.89,2.43,0,4.71-.22,6.84-.66,2.13-.44,3.98-1.11,5.56-2s2.83-2.01,3.74-3.34c.91-1.33,1.37-2.9,1.37-4.69s-.38-3.07-1.15-4.12c-.77-1.05-1.89-1.9-3.36-2.54-1.47-.64-3.26-1.15-5.37-1.52-2.11-.38-4.51-.75-7.2-1.14l-4.14-.6c-2.16-.31-4.4-.65-6.72-1.03-2.32-.37-4.6-.88-6.83-1.52-2.23-.64-4.35-1.45-6.36-2.44-2.01-.99-3.77-2.25-5.29-3.78s-2.72-3.38-3.6-5.54c-.89-2.16-1.33-4.72-1.33-7.7,0-2.72.38-5.23,1.15-7.51s1.86-4.35,3.28-6.21c1.42-1.85,3.12-3.48,5.13-4.88,2-1.4,4.23-2.57,6.69-3.52,2.46-.95,5.12-1.66,7.98-2.14,2.86-.47,5.85-.71,8.98-.71Z"/>
    <path class="cls-1" d="M315.12,241.19h-24.34v63.65h-17.32v-63.65h-24.34v-14.75h66v14.75Z"/>
    <path class="cls-1" d="M337.13,304.84h-17.32v-78.39h17.32v78.39Z"/>
    <path class="cls-1" d="M416.34,226.45l-25.71,78.39h-24.29l-25.33-78.39h18.47l19.21,65.78,19.54-65.78h18.09Z"/>
    <path class="cls-1" d="M407.95,304.84l27.03-78.39h24.28l26.64,78.39h-18.47l-5.24-17.24h-30.84l-5.32,17.24h-18.09ZM457.89,273.46l-10.99-36.1-11.16,36.1h22.15Z"/>
    <path class="cls-1" d="M507.09,226.45v63.65h35.63v14.75h-52.96v-78.39h17.32Z"/>
  </g>
</svg>