<?xml version="1.0" encoding="UTF-8"?>
<svg id="Livello_1" data-name="Livello 1" xmlns="http://www.w3.org/2000/svg" viewBox="0 0 434.48 239.72">
  <defs>
    <style>
      .cls-1 {
        fill: #fff;
      }
    </style>
  </defs>
  <g id="Livello_1-2" data-name="Livello 1-2">
    <g>
      <path class="cls-1" d="M189,186.75c0,8.8-2.81,13.2-8.42,13.2s-8.41-4.4-8.41-13.2l-.17-93.99c-.36.02-.7.05-1.07.05h-50.41v74.96c0,7.26.13,13.4.41,18.4.27,5.01.88,10.23,1.81,15.68.94,5.45,2.28,9.93,4.04,13.45s4.1,6.96,7.02,10.31c2.91,3.36,6.49,6,10.72,7.92s9.35,3.44,15.35,4.54c5.99,1.1,12.9,1.65,20.71,1.65s14.71-.55,20.71-1.65c5.99-1.1,11.14-2.61,15.43-4.54s7.92-4.57,10.89-7.92c2.97-3.36,5.33-6.79,7.09-10.31s3.11-7.98,4.05-13.37c.93-5.39,1.57-10.61,1.9-15.68.33-5.06.5-11.22.5-18.48V3.75h-51.82l-.33,183.01h0Z"/>
      <path class="cls-1" d="M382.67,3.75l-.33,188.12h-16.5l-.33-100.5v-19.14c0-7.26-.17-13.42-.5-18.48s-.96-10.28-1.9-15.67c-.94-5.39-2.29-9.87-4.05-13.45-1.76-3.58-4.12-7.04-7.09-10.4-2.97-3.35-6.6-5.97-10.89-7.84-4.29-1.87-9.43-3.38-15.43-4.54-6-1.15-12.9-1.73-20.71-1.73s-14.71.58-20.71,1.73c-6,1.15-11.11,2.67-15.35,4.54-4.23,1.87-7.81,4.49-10.72,7.84-2.92,3.36-5.25,6.82-7.02,10.4-1.76,3.58-3.11,8.09-4.04,13.53-.94,5.44-1.54,10.67-1.81,15.68-.28,5.01-.41,11.14-.41,18.4v164.19h51.32l.33-183.17c0-8.8,2.81-13.2,8.41-13.2s8.42,4.4,8.42,13.2l.33,75.08v108.75h120.79V3.75h-51.82,0Z"/>
      <path class="cls-1" d="M120.41,72.12c0-7.26-.17-13.42-.5-18.48s-.96-10.29-1.9-15.68-2.29-9.87-4.05-13.45c-1.76-3.57-4.12-7.04-7.09-10.4-2.97-3.36-6.6-5.97-10.89-7.84-4.29-1.87-9.43-3.38-15.43-4.54-6-1.15-12.9-1.73-20.71-1.73s-14.71.58-20.71,1.73c-6,1.15-11.11,2.67-15.35,4.54-4.23,1.87-7.81,4.48-10.72,7.84-2.92,3.36-5.25,6.82-7.01,10.4s-3.11,8.09-4.04,13.53S.46,48.72.19,53.72c-.08,1.37-.14,2.86-.19,4.41h46.09l5.34.07c0-8.8,2.81-18.26,8.41-18.26s8.42,4.4,8.42,13.2l.17,39.54h51.98v-20.56Z"/>
    </g>
  </g>
</svg>